<?xml version="1.0" encoding="UTF-8" standalone="no"?>
<svg
   height="24"
   viewBox="0 -960 960 960"
   width="24"
   version="1.1"
   id="svg5140"
   sodipodi:docname="award_star.svg"
   inkscape:version="1.2.2 (732a01da63, 2022-12-09)"
   xmlns:inkscape="http://www.inkscape.org/namespaces/inkscape"
   xmlns:sodipodi="http://sodipodi.sourceforge.net/DTD/sodipodi-0.dtd"
   xmlns="http://www.w3.org/2000/svg"
   xmlns:svg="http://www.w3.org/2000/svg">
  <defs
     id="defs5144" />
  <sodipodi:namedview
     id="namedview5142"
     pagecolor="#ffffff"
     bordercolor="#000000"
     borderopacity="0.25"
     inkscape:showpageshadow="2"
     inkscape:pageopacity="0.0"
     inkscape:pagecheckerboard="0"
     inkscape:deskcolor="#d1d1d1"
     showgrid="false"
     inkscape:zoom="33.5"
     inkscape:cx="12.014925"
     inkscape:cy="12.492537"
     inkscape:window-width="1920"
     inkscape:window-height="991"
     inkscape:window-x="-9"
     inkscape:window-y="-9"
     inkscape:window-maximized="1"
     inkscape:current-layer="svg5140" />
  <path
     d="M480-28 346-160H160v-186L28-480l132-134v-186h186l134-132 134 132h186v186l132 134-132 134v186H614L480-28Zm0-452Zm0 340 100-100h140v-140l100-100-100-100v-140H580L480-820 380-720H240v140L140-480l100 100v140h140l100 100ZM363-310l117-71 117 71-31-133 104-90-137-11-53-126-53 126-137 11 104 90-31 133Z"
     id="path5138"
     style="fill:#ffff00;fill-opacity:1" />
</svg>
