<?xml version="1.0" encoding="UTF-8" standalone="no"?>
<svg
   height="48"
   viewBox="0 -960 960 960"
   width="48"
   version="1.1"
   id="svg4"
   sodipodi:docname="fire_icon.svg"
   inkscape:version="1.2.2 (732a01da63, 2022-12-09)"
   xmlns:inkscape="http://www.inkscape.org/namespaces/inkscape"
   xmlns:sodipodi="http://sodipodi.sourceforge.net/DTD/sodipodi-0.dtd"
   xmlns="http://www.w3.org/2000/svg"
   xmlns:svg="http://www.w3.org/2000/svg">
  <defs
     id="defs8" />
  <sodipodi:namedview
     id="namedview6"
     pagecolor="#ffffff"
     bordercolor="#000000"
     borderopacity="0.25"
     inkscape:showpageshadow="2"
     inkscape:pageopacity="0.0"
     inkscape:pagecheckerboard="0"
     inkscape:deskcolor="#d1d1d1"
     showgrid="false"
     inkscape:zoom="8.375"
     inkscape:cx="3.880597"
     inkscape:cy="22.865672"
     inkscape:window-width="1920"
     inkscape:window-height="991"
     inkscape:window-x="-9"
     inkscape:window-y="-9"
     inkscape:window-maximized="1"
     inkscape:current-layer="svg4" />
  <path
     d="M220-400q0 63 28.5 118.5T328-189q-4-12-6-24.5t-2-24.5q0-32 12-60t35-51l113-111 113 111q23 23 35 51t12 60q0 12-2 24.5t-6 24.5q51-37 79.5-92.5T740-400q0-54-23-105.5T651-600q-21 15-44 23.5t-46 8.5q-61 0-101-41.5T420-714v-20q-46 33-83 73t-63 83.5q-26 43.5-40 89T220-400Zm260 24-71 70q-14 14-21.5 31t-7.5 37q0 41 29 69.5t71 28.5q42 0 71-28.5t29-69.5q0-20-7.5-37T551-306l-71-70Zm0-464v132q0 34 23.5 57t57.5 23q18 0 33.5-7.5T622-658l18-22q74 42 117 117t43 163q0 134-93 227T480-80q-134 0-227-93t-93-227q0-128 86-246.5T480-840Z"
     id="path966" />
  <path
     d="m 220,-400 c 0,42 9.5,81.5 28.5,118.5 19,37 45.5,67.83333 79.5,92.5 -2.66667,-8 -4.66667,-16.16667 -6,-24.5 -1.33333,-8.33333 -2,-16.5 -2,-24.5 0,-21.33333 4,-41.33333 12,-60 8,-18.66667 19.66667,-35.66667 35,-51 l 113,-111 113,111 c 15.33333,15.33333 27,32.33333 35,51 8,18.66667 12,38.66667 12,60 0,8 -0.66667,16.16667 -2,24.5 -1.33333,8.33333 -3.33333,16.5 -6,24.5 34,-24.66667 60.5,-55.5 79.5,-92.5 19,-37 28.5,-76.5 28.5,-118.5 0,-36 -7.66667,-71.16667 -23,-105.5 -15.33333,-34.33333 -37.33333,-65.83333 -66,-94.5 -14,10 -28.66667,17.83333 -44,23.5 -15.33333,5.66667 -30.66667,8.5 -46,8.5 -40.66667,0 -74.33333,-13.83333 -101,-41.5 -26.66667,-27.66667 -40,-62.5 -40,-104.5 v -20 c -30.66667,22 -58.33333,46.33333 -83,73 -24.66667,26.66667 -45.66667,54.5 -63,83.5 -17.33333,29 -30.66667,58.66667 -40,89 -9.33333,30.33333 -14,59.83333 -14,88.5 z m 260,24 -71,70 c -9.33333,9.33333 -16.5,19.66667 -21.5,31 -5,11.33333 -7.5,23.66667 -7.5,37 0,27.33333 9.66667,50.5 29,69.5 19.33333,19 43,28.5 71,28.5 28,0 51.66667,-9.5 71,-28.5 19.33333,-19 29,-42.16667 29,-69.5 0,-13.33333 -2.5,-25.66667 -7.5,-37 -5,-11.33333 -12.16667,-21.66667 -21.5,-31 z m 0,-464 v 132 c 0,22.66667 7.83333,41.66667 23.5,57 15.66667,15.33333 34.83333,23 57.5,23 12,0 23.16667,-2.5 33.5,-7.5 10.33333,-5 19.5,-12.5 27.5,-22.5 l 18,-22 c 49.33333,28 88.33333,67 117,117 28.66667,50 43,104.33333 43,163 0,89.33333 -31,165 -93,227 -62,62 -137.66667,93 -227,93 -89.33333,0 -165,-31 -227,-93 -62,-62 -93,-137.66667 -93,-227 0,-85.33333 28.66667,-167.5 86,-246.5 57.33333,-79 135.33333,-143.5 234,-193.5 z"
     id="path1017"
     sodipodi:nodetypes="sscssscccssscssscsssscssssccssssssscccssssccsssssssc"
     style="fill:#f8631e;fill-opacity:1" />
  <path
     d="m 220,-399.39552 c 0,42 9.5,81.5 28.5,118.5 19,37 45.5,67.83333 79.5,92.5 -2.66667,-8 -4.66667,-16.16667 -6,-24.5 -1.33333,-8.33333 -2,-16.5 -2,-24.5 0,-21.33333 4,-41.33333 12,-60 8,-18.66667 19.66667,-35.66667 35,-51 l 113,-111 113,111 c 15.33333,15.33333 27,32.33333 35,51 8,18.66667 12,38.66667 12,60 0,8 -0.66667,16.16667 -2,24.5 -1.33333,8.33333 -3.33333,16.5 -6,24.5 34,-24.66667 60.5,-55.5 79.5,-92.5 19,-37 28.5,-76.5 28.5,-118.5 0,-36 -7.66667,-71.16667 -23,-105.5 -15.33333,-34.33333 -37.33333,-65.83333 -66,-94.5 -14,10 -28.66667,17.83333 -44,23.5 -15.33333,5.66667 -30.66667,8.5 -46,8.5 -40.66667,0 -74.33333,-13.83333 -101,-41.5 -26.66667,-27.66667 -40,-62.5 -40,-104.5 v -20 c -30.66667,22 -58.33333,46.33333 -83,73 -24.66667,26.66667 -45.66667,54.5 -63,83.5 -17.33333,29 -30.66667,58.66667 -40,89 -9.33333,30.33333 -14,59.83333 -14,88.5 z"
     id="path1067"
     style="fill:#ffad00;fill-opacity:1" />
  <path
     d="m 480,-375.91047 -71,70 c -9.33333,9.33333 -16.5,19.66667 -21.5,31 -5,11.33333 -7.5,23.66667 -7.5,37 0,27.33333 9.66667,50.5 29,69.5 19.33333,19 43,28.5 71,28.5 28,0 51.66667,-9.5 71,-28.5 19.33333,-19 29,-42.16667 29,-69.5 0,-13.33333 -2.5,-25.66667 -7.5,-37 -5,-11.33333 -12.16667,-21.66667 -21.5,-31 z"
     style="fill:#fff768;fill-opacity:1"
     id="path2575" />
</svg>
