<?xml version="1.0" encoding="UTF-8" standalone="no"?>
<svg
   width="135.31842mm"
   height="41.543716mm"
   viewBox="0 0 135.31842 41.543716"
   version="1.1"
   id="svg5"
   xml:space="preserve"
   xmlns="http://www.w3.org/2000/svg"
   xmlns:svg="http://www.w3.org/2000/svg"
   xmlns:rdf="http://www.w3.org/1999/02/22-rdf-syntax-ns#"
   xmlns:cc="http://creativecommons.org/ns#"
   xmlns:dc="http://purl.org/dc/elements/1.1/"><metadata
     id="metadata37"><rdf:RDF><cc:Work
         rdf:about=""><dc:format>image/svg+xml</dc:format><dc:type
           rdf:resource="http://purl.org/dc/dcmitype/StillImage" /></cc:Work></rdf:RDF></metadata><defs
     id="defs2" /><g
     id="layer1"
     transform="translate(-8.8767159,-8.6016443)"><g
       id="g594"><path
         style="fill:none;stroke:#38bdf8;stroke-width:0.718942;stroke-opacity:1"
         d="m 20.277824,49.77454 h 17.435883 c 0,0 0.30739,-0.34529 -0.05123,-1.272118 -0.358623,-0.926831 -0.853867,-0.890483 -0.853867,-0.890483 h -8.484838"
         id="path6856" /><path
         style="fill:none;stroke:#38bdf8;stroke-width:0.741651;stroke-opacity:1"
         d="M 37.247264,49.77454 H 18.692519 c 0,0 -0.327115,-0.34529 0.05452,-1.272118 0.381635,-0.926831 0.908658,-0.890483 0.908658,-0.890483 h 8.704916"
         id="path6858" /><path
         style="fill:none;stroke:#38bdf8;stroke-width:0.741651;stroke-opacity:1"
         d="m 20.695805,46.467032 h 15.138204 c 0,0 -0.945001,-0.05452 -1.599234,-0.890483 -0.586062,-0.748856 -0.654233,-1.253943 -0.654233,-1.253943 h -4.67049"
         id="path6864" /><path
         style="fill:none;stroke:#38bdf8;stroke-width:0.741651;stroke-opacity:1"
         d="M 35.855368,46.467032 H 20.717164 c 0,0 0.945001,-0.05452 1.599234,-0.890483 0.586062,-0.748856 0.654233,-1.253943 0.654233,-1.253943 l 6.069819,-0.01817"
         id="path6866" /><path
         style="fill:none;stroke:#38bdf8;stroke-width:0.74165;stroke-opacity:1"
         d="m 21.604454,43.083094 c 0,0 12.18612,0.239843 12.980706,0.167052 0.79458,-0.07279 1.358314,-1.178159 0.688437,-1.72112 C 34.59289,40.977285 34.6122,41.233685 34.418357,40.948931 33.87141,40.145459 34.907179,39.811933 33.780439,38.10366 32.653706,36.395387 30.40024,33.814804 29.636969,33.414995 28.873698,33.015187 28.07408,31.34326 28.146773,30.507296 c 0.07269,-0.835963 -0.342748,-0.973165 0,-1.126733 0.548156,-0.24561 0.436155,0.981348 1.344811,1.199426 0.908656,0.218084 2.21712,0.399808 2.76232,0.508841 0.545187,0.109045 1.017688,0.109045 1.381151,0.654238 0.363462,0.545194 0.16338,0.583484 0.399808,0.726925 0.455878,0.276583 1.453856,0.181731 1.599235,0.03632 0.145384,-0.145385 -0.363463,-1.054041 -0.363463,-1.054041 0,0 0.908656,0.218078 1.16308,0.07269 0.254423,-0.145385 0.726924,-1.74462 0.07269,-2.544237"
         id="path6872" /><path
         style="fill:none;stroke:#38bdf8;stroke-width:0.74165;stroke-opacity:1"
         d="m 21.859993,43.127459 c 0,0 -0.848121,-0.257004 -0.693919,-0.976626 0.154206,-0.719621 0.848124,-0.82242 0.848124,-0.82242 1.216855,-1.411238 -2.312026,-6.257477 -2.570068,-8.506918 -0.154203,-2.056058 -0.121977,-2.356594 0.122803,-3.364207 0.622688,-2.563217 1.088521,-4.446161 3.603795,-6.684752 2.570067,-2.287363 3.906498,-2.647167 3.906498,-2.647167 0,0 0.154205,1.85044 0.179905,2.081745 0.02568,0.231311 0.745321,-2.518662 3.058384,-2.724267 2.313056,-0.205598 2.107451,-0.0771 2.107451,-0.0771"
         id="path6928" /><path
         style="fill:none;stroke:#38bdf8;stroke-width:0.74165;stroke-opacity:1"
         d="m 32.508321,19.294483 c -1.780965,1.635587 -1.92635,1.435676 -2.289813,2.271639 -0.363462,0.835964 -0.363462,1.090387 -0.363462,1.090387 0,0 0.835963,0.254431 1.41751,0.872317 0.58154,0.617886 0.405687,0.598721 0.726918,0.654225 0.219489,0.0379 0.29077,-0.327109 0.617886,-0.254417 0.327116,0.07269 0.435019,0.01984 0.654232,0.404216 0.21922,0.384374 -0.03632,1.376743 0.03632,1.88559 0.07269,0.508848 0.726925,1.054041 0.726925,1.054041 0,0 1.308471,0.58154 1.562888,0.726925 0.254424,0.145385 1.126733,1.272118 1.126733,1.272118"
         id="path6930" /><path
         style="fill:none;stroke:#38bdf8;stroke-width:0.517625;stroke-dasharray:none;stroke-opacity:1"
         d="m 13.635419,18.570474 c -0.01312,-0.718978 -0.03912,-1.491858 -0.04039,-2.077989 0.0092,-0.677081 0.04322,-1.030646 0.09372,-1.423276 0.06352,-0.493919 0.169132,-1.364724 0.228976,-1.626011 0.05675,-0.247777 0.09967,-0.293772 0.178433,-0.527001 0.202681,-0.566992 0.340516,-0.836587 0.571922,-1.246353 0.144642,-0.286349 0.245942,-0.47717 0.381372,-0.706899 0.111002,-0.182105 0.307145,-0.426198 0.444312,-0.620395 0.172644,-0.247613 0.442182,-0.6557294 0.662735,-0.850432 0.377956,-0.3407574 0.661824,-0.4648299 1.014801,-0.5910696 0.262235,-0.093782 0.54684,-0.017011 0.558288,0.2001538 0.01472,0.279401 -0.284751,0.4470837 -0.544425,0.7575307 -0.284845,0.4462361 -0.602827,0.6936321 -0.805813,1.1004491 -0.107102,0.214655 -0.161288,0.374365 -0.222548,0.568397 -0.08396,0.265944 -0.0817,0.220284 -0.184256,0.665857 -0.06094,0.264736 -0.1079,0.569731 -0.136573,2.149282 -0.02548,1.403185 -0.01412,1.631213 0.06439,2.441562 0.03691,0.381025 0.296073,0.861815 0.190662,1.132494 -0.280757,0.167906 -0.524069,0.339424 -0.855854,0.74362 -0.470303,0.596002 -0.88237,1.262142 -0.904854,1.883528 -6.15e-4,0.07799 0,0 -0.124836,-0.161785 -0.419084,-0.965033 -0.521746,-1.125012 -0.570051,-1.81167 z"
         id="path7727" /><path
         style="fill:none;stroke:#38bdf8;stroke-width:0.517625;stroke-dasharray:none;stroke-opacity:1"
         d="m 16.753114,23.928739 c -0.193579,-0.166008 -0.364613,-0.356914 -0.537982,-0.543926 -0.06645,-0.07168 -0.130496,-0.145654 -0.192298,-0.221381 -0.121874,-0.149345 -0.245346,-0.29827 -0.351686,-0.459043 -0.08793,-0.132939 -0.174716,-0.268807 -0.235514,-0.416143 -0.125536,-0.304221 -0.266597,-0.623081 -0.261175,-0.952135 0.02787,-0.929706 0.544901,-1.608199 0.917569,-2.227609 0.149777,-0.315741 0.226793,0.240336 0.249604,0.394173 0.06766,0.456259 0.08434,0.516322 0.140509,0.771672 0.04557,0.207188 0.102495,0.411768 0.159251,0.616171 0.05403,0.194605 0.09735,0.393366 0.172543,0.580818 0.07795,0.194328 0.177601,0.380197 0.286844,0.558828 0.06391,0.104494 0.144928,0.202577 0.214572,0.298316 0.134662,0.185101 0.220331,0.315597 0.214696,0.495515 -0.002,0.06561 -0.06153,0.115981 -0.08941,0.175387 -0.100097,0.213237 -0.132363,0.292569 -0.279281,0.649155 -0.06087,0.147749 -0.05732,0.117616 -0.183843,0.442723 -0.0335,0.08607 -0.154287,-0.102406 -0.224396,-0.162521 z"
         id="path7729" /><path
         style="fill:none;stroke:#38bdf8;stroke-width:0.517625;stroke-dasharray:none;stroke-opacity:1"
         d="M 18.331934,30.181428 C 18.300404,30.100108 18.100418,29.861635 17.89697,29.589222 17.693521,29.316816 17.624582,29.099796 17.53729,28.802898 17.45,28.506014 17.420667,28.360773 17.3704,28.160101 c -0.05026,-0.200673 -0.142267,-0.429055 -0.123445,-0.817029 0.01882,-0.38798 0.0087,-0.599995 0.0956,-0.938467 0.08692,-0.338478 0.136588,-0.705809 0.283561,-1.123844 0.146971,-0.418034 0.305977,-0.709139 0.491123,-1.000572 0.185146,-0.291427 0.324075,0.197987 0.57064,0.368296 0.246565,0.170304 0.431481,0.407342 0.723011,0.651973 0.29153,0.244631 0.319317,0.345703 0.221247,0.551473 -0.09807,0.205776 -0.303824,0.351942 -0.425707,0.586052 -0.121883,0.234109 -0.12633,0.27391 -0.279902,0.812398 -0.153572,0.538487 -0.317129,1.358531 -0.337503,2.007752 -0.02037,0.649221 -0.07617,0.544392 -0.10708,0.821126 -0.03091,0.276735 -0.118483,0.183485 -0.150012,0.102169 z"
         id="path7731" /><path
         style="fill:none;stroke:#38bdf8;stroke-width:0.517737;stroke-opacity:1"
         d="m 15.714213,25.363457 c -0.692476,-0.470334 -0.74697,-0.386903 -1.157748,-0.790718 -0.290786,-0.285857 -0.559604,-0.595148 -0.41038,-0.85987 0.149224,-0.264722 0.415637,-1.290508 0.63153,-0.97151 0.279183,0.412511 0.297312,0.5129 0.530415,0.854248 0.255957,0.399874 0.484719,0.533733 0.600735,0.689567 0.189125,0.19641 0.245177,0.233571 0.385799,0.414448 0.203801,0.332009 0.170999,0.131264 0.117372,0.461389 -0.06682,0.411348 -0.273782,0.400032 -0.697723,0.202446 z"
         id="path7733" /><path
         style="fill:none;stroke:#38bdf8;stroke-width:0.517737;stroke-opacity:1"
         d="m 12.866457,23.339811 c -0.302097,-0.07801 -0.431173,-0.457494 -0.592812,-0.724364 -0.269676,-0.445251 -0.470025,-0.935794 -0.612897,-1.436352 -0.249601,-0.874491 -0.416406,-1.787054 -0.415125,-2.696465 7.88e-4,-0.53835 0.112763,-1.075052 0.250242,-1.595551 0.112242,-0.42495 0.281725,-0.834419 0.465601,-1.233631 0.06278,-0.136306 0.117895,-0.281699 0.216779,-0.394584 0.09746,-0.11126 0.222364,-0.323378 0.357387,-0.262998 0.210162,0.09398 0.06567,0.4573 0.06577,0.687518 9.4e-5,0.227349 -0.05311,0.451932 -0.06438,0.679 -0.02228,0.448491 -0.02512,0.898463 -0.0064,1.347116 0.01331,0.31844 0.0231,0.639645 0.0843,0.952437 0.08605,0.439774 0.25225,0.87537 0.394935,1.285031 0.09185,0.263717 0.224873,0.461894 0.356788,0.681915 0.153149,0.255435 0.275503,0.492513 0.545756,0.787566 0.121087,0.132196 0.31524,0.178985 0.292537,0.32108 -0.12624,0.170395 -0.291366,0.433633 -0.393003,0.609348 -0.142338,0.267802 -0.226608,0.379008 -0.318086,0.742681 -0.08321,0.3308 -0.409406,0.306552 -0.627416,0.250253 z"
         id="path7735" /><path
         style="fill:none;stroke:#38bdf8;stroke-width:0.517737;stroke-opacity:1"
         d="m 13.13084,26.357139 c -0.254511,0.120395 -0.568333,-0.06318 -0.825948,-0.176772 -0.322474,-0.1422 -0.533878,-0.359101 -0.860642,-0.614162 C 11.154537,25.340069 10.947885,25.074033 10.68303,24.768584 10.472995,24.52635 10.400024,24.191589 10.293178,23.889306 10.178333,23.56439 10.111264,23.224493 10.02522,22.890796 9.9236366,22.496833 9.7950784,22.107907 9.7321004,21.705957 c -0.048983,-0.31264 -0.088543,-0.631586 -0.064805,-0.947149 0.089052,-1.183749 0.1638943,-1.079045 0.3641696,-1.442093 0.09881,-0.179111 0.162666,0.105807 0.19449,0.190886 0.299755,0.801384 0.327333,1.497552 0.561428,2.226151 0.08746,0.272216 0.173737,0.549056 0.313936,0.798238 0.305657,0.543263 0.68992,1.049069 1.132127,1.488403 0.153568,0.15257 0.327466,0.289745 0.519437,0.38978 0.223122,0.116269 0.567746,0.0329 0.717181,0.235304 0.201627,0.273116 0.05845,0.781083 0.01846,1.01826 -0.05023,0.481643 -0.12259,0.58219 -0.357686,0.693402 z"
         id="path7737" /><path
         style="fill:none;stroke:#38bdf8;stroke-width:0.480361;stroke-opacity:1"
         d="m 15.049018,26.948925 c -0.54603,-0.197277 -0.790823,-0.270318 -0.872679,-0.432129 -0.08186,-0.161817 -0.04978,-0.258771 -0.0409,-0.442164 0.0089,-0.183393 -0.01446,-0.950821 0.138964,-0.766811 0.15342,0.18401 0.428353,0.396505 0.760544,0.603706 0.33219,0.207201 0.717917,0.339601 1.066626,0.399664 0.348709,0.06003 0.332226,0.01747 0.396905,0.169686 0.06468,0.152222 0.01998,0.296438 -0.07422,0.476744 -0.09419,0.180312 -0.184254,0.04913 -0.508901,0.08855 -0.544262,0.0099 -0.490514,0.03691 -0.866347,-0.09724 z"
         id="path7739" /><path
         style="fill:none;stroke:#38bdf8;stroke-width:0.517737;stroke-opacity:1"
         d="m 13.018781,28.934084 c -0.15324,-0.0081 -0.307661,-0.02187 -0.456567,-0.05898 -0.241821,-0.06023 -0.473517,-0.158705 -0.69978,-0.263153 -0.380411,-0.17561 -0.703241,-0.382555 -1.099896,-0.608428 -0.30324,-0.172681 -0.318823,-0.194578 -0.748776,-0.731634 -0.111721,-0.139553 -0.1831268,-0.307183 -0.268241,-0.464383 -0.1091898,-0.201664 0,0 -0.3107738,-0.613794 -0.1970328,-0.389149 -0.5001226,-1.114774 -0.1071984,-1.304163 0.3879862,-0.187012 0.6226191,0.595431 0.9414442,0.885012 0.09487,0.08616 0.191068,0.170901 0.288989,0.253576 0.178006,0.150298 0.353259,0.304766 0.542506,0.440641 0.230929,0.165798 0.45777,0.348284 0.721129,0.455333 0.434748,0.17672 0.917479,0.198019 1.377252,0.292064 0.149857,0.03067 0.346941,-0.0241 0.450219,0.08872 0.210877,0.230373 0.08046,0.619922 0.09935,0.931663 0.01373,0.226432 0.165507,0.497472 0.01011,0.680464 -0.179254,0.12008 -0.49577,0.02476 -0.73977,0.01708 z"
         id="path7741" /><path
         style="fill:none;stroke:#38bdf8;stroke-width:0.517737;stroke-opacity:1"
         d="m 14.897169,29.032147 c -0.140837,-0.02785 -0.236083,-0.127362 -0.305798,-0.284963 -0.06972,-0.157602 -0.08924,-0.261215 -0.101426,-0.295578 -0.09335,-0.263297 -0.207052,-0.924044 0.04452,-0.931394 0.379304,0.0026 0.901473,0.325639 1.76939,0.338807 0.174751,-0.04965 0.167092,0.165982 0.209346,0.312247 0.127671,0.441947 0.108861,0.264853 0.125854,0.413988 0.03253,0.285516 0.09389,0.410692 -0.122124,0.462827 -0.652384,0.157457 -1.0291,0.100895 -1.619764,-0.01596 z"
         id="path7743" /><path
         style="fill:none;stroke:#38bdf8;stroke-width:0.517737;stroke-opacity:1"
         d="m 13.583109,31.283263 c -0.549368,0.02693 -1.128523,-0.205461 -1.642061,-0.446309 -0.314154,-0.147335 -0.584293,-0.377274 -0.852218,-0.597769 -0.31639,-0.260374 -0.651405,-0.516032 -0.886355,-0.851739 -0.170192,-0.243173 -0.5636887,-0.5988 -0.3598089,-0.814513 0.4473159,0.07667 0.9449199,0.431663 1.3225539,0.649458 0.478556,0.209933 0.997942,0.312371 1.504521,0.440686 0.454794,0.115199 0.941288,0.11912 1.37619,0.295098 0.2277,0.09214 0.471789,0.198217 0.625218,0.390043 0.799563,1.120881 -0.325081,0.867101 -1.08804,0.935045 z"
         id="path7745" /><path
         style="fill:none;stroke:#38bdf8;stroke-width:0.517737;stroke-opacity:1"
         d="m 15.469272,30.301271 c -0.796864,-0.587431 0.491445,-0.365827 0.873866,-0.404203 0.360322,-0.05602 0.523519,-0.28168 0.751035,-0.107101 0.266789,0.304937 0.678179,0.642982 0.263467,0.847694 -1.722316,0.348724 -1.526497,0.07278 -1.888368,-0.336364 z"
         id="path7747" /><path
         style="fill:none;stroke:#38bdf8;stroke-width:0.517737;stroke-opacity:1"
         d="m 12.641766,33.104824 c -0.465529,-0.170592 -1.343666,-0.602938 -1.798999,-0.981808 -1.4481629,-1.204976 1.74726,-0.03895 2.221527,0.0059 0.493386,0.04689 1.238891,0.05911 1.715164,-0.07801 0.4188,-0.120539 0.779927,-0.433554 1.157904,-0.305265 0.214821,0.07292 0.280744,0.356494 0.416521,0.538232 0.118139,0.158133 0.505934,0.412097 0.34632,0.480336 -0.474919,0.203044 -0.779348,0.34594 -1.195831,0.410179 -0.943331,0.145497 -2.143226,0.231167 -2.862606,-0.06976 -5.6e-5,-2.6e-5 0,1.84e-4 0,1.84e-4 z"
         id="path7749" /><path
         style="fill:none;stroke:#38bdf8;stroke-width:0.517737;stroke-opacity:1"
         d="m 17.145129,32.055269 c -0.239815,-0.247094 -0.294974,-0.462446 -0.234371,-0.499902 0.0606,-0.0375 0.188502,-0.05241 0.461986,-0.103804 0.283363,-0.0532 0.185547,-0.03113 0.582736,-0.08965 0.107283,-0.01583 0.332371,-0.142055 0.331834,-0.01819 -0.03933,0.40063 -0.302694,0.517222 -0.464942,0.680038 -0.207234,0.208672 -0.437429,0.278613 -0.677243,0.03152 z"
         id="path7751" /><path
         style="fill:none;stroke:#38bdf8;stroke-width:0.517737;stroke-opacity:1"
         d="m 18.551032,32.638372 c -0.03926,-0.03159 0.02355,-0.202998 0.07464,-0.183111 0.05109,0.0199 0.08942,0.125951 0.06974,0.218452 -0.01968,0.09251 -0.09781,0.002 -0.144376,-0.03533 -0.04656,-0.0375 0.03927,0.03166 2e-6,0 z"
         id="path7753" /><path
         style="fill:none;stroke:#38bdf8;stroke-width:0.517737;stroke-opacity:1"
         d="m 15.083743,34.044631 c 0.406876,0.01071 0.81064,-0.0683 1.241892,-0.19467 0.347288,-0.130174 0.961275,-0.524879 0.985341,-0.540136 0.163885,-0.109269 0.295364,-0.259901 0.415054,-0.327747 0.03772,-0.08572 0.362841,0.06128 0.479609,0.172904 0.247439,0.129353 0.240067,0.107476 0.542949,0.369893 0.267605,0.231856 -0.284433,0.346432 -0.43265,0.475929 -0.111637,0.09181 -0.313121,0.165496 -0.388147,0.205507 0,0.05701 -0.525244,0.167466 -1.465288,0.188075 -0.690601,-0.09888 -2.17632,-0.325677 -1.37876,-0.349755 z"
         id="path7755" /><text
         xml:space="preserve"
         style="font-style:normal;font-variant:normal;font-weight:bold;font-stretch:normal;font-size:24.2842px;font-family:Georgia;-inkscape-font-specification:'Georgia, Bold';font-variant-ligatures:normal;font-variant-caps:normal;font-variant-numeric:normal;font-variant-east-asian:normal;letter-spacing:0px;fill:#38bdf8;fill-opacity:1;stroke:none;stroke-width:1.42263;stroke-dasharray:none;stroke-opacity:1"
         x="44.248096"
         y="44.149887"
         id="text16693"><tspan
           id="tspan16691"
           style="font-style:normal;font-variant:normal;font-weight:bold;font-stretch:normal;font-size:24.2842px;font-family:Georgia;-inkscape-font-specification:'Georgia, Bold';font-variant-ligatures:normal;font-variant-caps:normal;font-variant-numeric:normal;font-variant-east-asian:normal;fill:#38bdf8;fill-opacity:1;stroke:none;stroke-width:1.42263"
           x="44.248096"
           y="44.149887">Pegasus</tspan></text></g></g></svg>
