<?xml version="1.0" encoding="UTF-8" standalone="no"?>
<!-- Created with Inkscape (http://www.inkscape.org/) -->

<svg
   version="1.1"
   id="svg8362"
   width="1000"
   height="1000"
   viewBox="0 0 1000 1000"
   sodipodi:docname="puzzle_fire.svg"
   inkscape:version="1.2.2 (732a01da63, 2022-12-09)"
   xmlns:inkscape="http://www.inkscape.org/namespaces/inkscape"
   xmlns:sodipodi="http://sodipodi.sourceforge.net/DTD/sodipodi-0.dtd"
   xmlns="http://www.w3.org/2000/svg"
   xmlns:svg="http://www.w3.org/2000/svg">
  <defs
     id="defs8366">
    <clipPath
       clipPathUnits="userSpaceOnUse"
       id="clipPath9032">
      <path
         style="fill:#ff0000;stroke-width:7.02992"
         d="M 118.7647,126.0733 946.46334,913.57465 1143.7955,-3.6542986 401.97285,-65.777375 Z"
         id="path9034" />
    </clipPath>
    <clipPath
       clipPathUnits="userSpaceOnUse"
       id="clipPath9171">
      <path
         style="opacity:1;fill:#c87137;fill-opacity:1;stroke-width:7.02992"
         d="m 226.09819,661.49871 c 0,0 177.00259,-14.21189 288.1137,-143.41085 C 625.323,388.88889 773.90181,332.04134 773.90181,332.04134 L 1033.5917,421.18863 985.78811,828.16537 519.37984,1023.2558 74.935401,962.5323 -59.431525,698.96641 83.979328,643.41085 Z"
         id="path9173" />
    </clipPath>
    <clipPath
       clipPathUnits="userSpaceOnUse"
       id="clipPath12205">
      <path
         style="fill:#f42b00;fill-opacity:1;stroke-width:7.02992"
         d="m 374.56558,792.98278 c 0,0 25.58009,-40.19729 105.97466,-49.33303 80.39457,-9.13575 246.66515,-1.82715 246.66515,-1.82715 l -7.3086,147.99909 -107.8018,162.61631 -263.1095,-107.80183 z"
         id="path12207" />
    </clipPath>
    <clipPath
       clipPathUnits="userSpaceOnUse"
       id="clipPath12336">
      <path
         style="fill:#f42b00;fill-opacity:1;stroke-width:7.02992"
         d="m 489.67601,334.36832 c 0,0 144.3448,-67.60452 259.4552,-74.91312 115.11041,-7.3086 184.54208,9.13575 184.54208,9.13575 L 1154.7584,76.740271 743.64977,-73.085972 226.56651,-9.1357465 230.22081,259.4552 Z"
         id="path12338" />
    </clipPath>
  </defs>
  <sodipodi:namedview
     id="namedview8364"
     pagecolor="#ffffff"
     bordercolor="#000000"
     borderopacity="0.25"
     inkscape:showpageshadow="2"
     inkscape:pageopacity="0.0"
     inkscape:pagecheckerboard="0"
     inkscape:deskcolor="#d1d1d1"
     showgrid="false"
     inkscape:zoom="0.54730065"
     inkscape:cx="412.02217"
     inkscape:cy="501.55248"
     inkscape:window-width="1920"
     inkscape:window-height="991"
     inkscape:window-x="-9"
     inkscape:window-y="-9"
     inkscape:window-maximized="1"
     inkscape:current-layer="g8368" />
  <g
     inkscape:groupmode="layer"
     inkscape:label="Image"
     id="g8368">
    <path
       style="opacity:1;fill:#f78c04;fill-opacity:1;stroke-width:13.1119"
       d="M 473.49986,877.7913 C 377.62654,782.46777 369.32716,775.87875 345.08628,775.84144 c -27.1959,-0.0417 -29.64589,17.4537 -38.05479,61.51278 -1.95785,10.25834 -4.8782,24.45249 -6.48967,32.65916 -1.61147,8.20667 -8.32293,24.50237 -11.56455,30.62973 -6.97404,13.18233 -31.63006,26.04554 -42.09796,31.36355 -33.65177,17.09607 -83.15296,1.96727 -126.35626,-38.61763 -21.034497,-19.7597 -33.023617,-35.46575 -43.471167,-56.94838 -20.21069,-41.55795 -17.2769,-74.90041 8.78951,-99.89264 15.870647,-15.21663 28.025637,-30.39656 65.169387,-36.69135 36.96072,-6.26379 53.83808,-2.49358 64.8467,-14.43654 9.09705,-9.86914 12.21457,-19.0806 10.86922,-32.11579 -2.30104,-22.29494 -9.93208,-31.60199 -101.84304,-124.21096 L 56.792903,460.48551 104.27705,412.81917 c 26.11628,-26.21648 59.46176,-58.9213 74.10106,-72.67738 24.75099,-23.2577 27.12559,-25.01105 33.87321,-25.01105 5.83524,0 14.15373,-4.34154 18.09228,0.33918 9.44918,11.2297 18.01041,22.42883 19.62209,61.68655 1.69496,41.28643 -0.55232,45.61753 10.19313,63.72989 16.81687,28.34626 42.17601,41.39462 75.52703,35.83746 58.97568,-9.82691 99.16216,-14.27423 121.65127,-44.20967 40.83576,-54.35682 45.12053,-117.29084 19.9382,-155.30922 -10.42493,-15.73876 -26.76404,-23.83766 -44.19155,-29.84192 -4.14546,-1.42823 -21.38621,-4.4007 -43.74711,-5.20343 -40.16389,-1.44184 -44.67214,-2.71181 -48.26257,-3.93873 -10.1758,-3.47727 -18.65151,-27.09649 -18.65151,-34.42689 0,-7.63024 4.96192,-13.08671 86.5098,-95.13239 L 468.62279,48.606793 536.81,116.13724 c 97.56371,96.62402 104.41375,102.00562 129.83901,102.00562 11.35133,0 14.44927,-0.73774 20.5863,-4.90244 16.18312,-10.98216 10.13141,-28.74564 16.97305,-71.21412 2.03432,-12.62787 11.67439,-31.11111 13.60623,-36.60753 8.46869,-24.094957 39.13724,-43.304007 60.57745,-48.482187 21.15411,-5.10907 52.01448,2.17358 79.71239,18.81109 17.5422,10.5372 48.50603,39.109847 60.1563,55.510717 19.17175,26.98939 28.05063,50.95892 28.05325,75.73277 0.002,16.29443 -0.50149,18.78062 -6.10485,30.16267 -7.39704,15.02551 -12.54946,34.25013 -29.1035,42.26213 -8.78614,4.25239 -19.67411,14.29887 -44.78148,18.56925 -37.36878,6.35586 -58.73219,-1.83407 -71.08007,10.5138 -13.43363,13.43363 -15.36727,32.12258 -5.36565,51.85982 6.65213,13.12734 23.91908,31.95482 97.57427,106.39275 l 66.10207,66.80449 -67.96722,68.02076 c -37.38195,37.41142 -71.15177,70.23913 -75.04404,72.95049 -13.38786,9.32597 -32.54286,12.43603 -40.38122,-5.78471 -3.57582,-8.3122 -12.52732,-19.97507 -13.75717,-52.39302 -1.55747,-41.05299 -0.91279,-43.28603 -12.25734,-60.96496 -8.04951,-12.54408 -17.47338,-20.99007 -30.53929,-27.17451 -30.0612,-14.22875 -63.05738,-26.427 -104.72328,-6.26764 -39.76603,19.24013 -56.64948,35.71772 -75.71373,73.89359 -12.8076,25.64704 -18.41076,45.05778 -19.92077,69.01062 -1.30274,20.66477 13.14876,33.9858 21.78195,51.24253 11.43724,22.86171 30.52073,27.95036 54.95355,31.87134 6.66276,1.06924 24.97503,2.77046 42.92713,3.78052 33.31617,1.87449 45.51762,16.35863 54.36293,22.84085 7.8035,5.71876 3.53776,14.49795 -0.26305,21.84792 -1.72598,3.33764 -21.8035,25.03628 -44.61674,48.21918 -22.81323,23.18289 -54.31503,55.36998 -70.00399,71.52686 -15.68896,16.15687 -29.04047,29.3597 -29.67,29.33959 -0.62952,-0.0201 -31.7797,-30.49595 -69.22263,-67.72418 z"
       id="path9113"
       sodipodi:nodetypes="ssssssssssssscsssssssssssssscsssssssscsssssscssssssssssssssssss" />
    <path
       style="opacity:1;fill:#f55801;fill-opacity:1;stroke-width:13.1119"
       d="M 473.49988,877.79128 C 377.62656,782.46775 369.32718,775.87873 345.0863,775.84142 c -27.1959,-0.0417 -29.64589,17.4537 -38.05479,61.51278 -1.95785,10.25834 -4.8782,24.45249 -6.48967,32.65916 -1.61147,8.20667 -8.32293,24.50237 -11.56455,30.62973 -6.97404,13.18233 -31.63006,26.04554 -42.09796,31.36355 -33.65177,17.09607 -83.15296,1.96727 -126.35626,-38.61763 -21.034504,-19.7597 -33.023622,-35.46575 -43.471173,-56.94838 -20.210685,-41.55795 -17.276896,-74.90041 8.789509,-99.89264 15.870654,-15.21663 28.025644,-30.39656 65.169394,-36.69135 36.96072,-6.26379 53.83808,-2.49358 64.8467,-14.43654 9.09705,-9.86914 12.21457,-19.0806 10.86922,-32.11579 -2.30104,-22.29494 -9.93208,-31.60199 -101.84304,-124.21096 L 56.792919,460.48549 104.27707,412.81915 c 26.11628,-26.21648 59.46176,-58.9213 74.10106,-72.67738 24.75099,-23.2577 27.12559,-25.01105 33.87321,-25.01105 5.83524,0 14.15373,-4.34154 18.09228,0.33918 9.44918,11.2297 18.01041,22.42884 19.62209,61.68655 1.69496,41.28643 -0.55232,45.61753 10.19313,63.72989 16.81687,28.34626 42.17601,41.39462 75.52703,35.83746 58.97568,-9.82691 99.16216,-14.27423 121.65127,-44.20967 40.83576,-54.35682 45.12053,-117.29084 19.9382,-155.30922 -10.42493,-15.73876 -26.76404,-23.83766 -44.19155,-29.84192 -4.14546,-1.42823 -21.38621,-4.4007 -43.74711,-5.20343 -40.16389,-1.44184 -44.67214,-2.71181 -48.26257,-3.93873 -10.1758,-3.47727 -18.65151,-27.09649 -18.65151,-34.42689 0,-7.63024 4.96192,-13.08671 86.5098,-95.13239 l 59.69041,-60.054776 68.18721,67.530446 c 97.56371,96.62402 104.41375,102.00562 129.83901,102.00562 11.35133,0 14.44927,-0.73774 20.5863,-4.90244 16.18312,-10.98216 10.13141,-28.74564 16.97305,-71.21412 2.03432,-12.62787 11.67439,-31.11111 13.60623,-36.60753 8.46869,-24.094958 39.13724,-43.304009 60.57745,-48.482184 21.15411,-5.109069 52.01448,2.173578 79.71239,18.811087 17.5422,10.537197 48.50603,39.109847 60.15629,55.510717 19.17175,26.98939 28.05063,50.95892 28.05325,75.73277 0.002,16.29443 -0.50149,18.78062 -6.10485,30.16267 -7.39704,15.02551 -12.54946,34.25013 -29.1035,42.26213 -8.78613,4.25239 -19.6741,14.29887 -44.78147,18.56925 -37.36878,6.35586 -58.73219,-1.83407 -71.08007,10.5138 -13.43363,13.43363 -15.36727,32.12258 -5.36565,51.85982 6.65213,13.12734 23.91908,31.95482 97.57427,106.39275 l 66.10206,66.80449 -67.96721,68.02076 c -37.38195,37.41142 -71.15177,70.23913 -75.04404,72.95049 -13.38786,9.32597 -32.54286,12.43603 -40.38122,-5.78471 -3.57582,-8.3122 -12.52732,-19.97507 -13.75717,-52.39302 -1.55747,-41.05299 -0.91279,-43.28603 -12.25734,-60.96496 -8.04951,-12.54408 -17.47338,-20.99007 -30.53929,-27.17451 -30.0612,-14.22875 -63.05738,-26.427 -104.72328,-6.26764 -39.76603,19.24014 -56.64948,35.71773 -75.71373,73.8936 -12.8076,25.64704 -18.41076,45.05778 -19.92077,69.01061 -1.30274,20.66478 13.14876,33.9858 21.78195,51.24253 11.43724,22.86171 30.52073,27.95036 54.95355,31.87134 6.66276,1.06924 24.97503,2.77046 42.92713,3.78052 33.31617,1.87449 45.51762,16.35863 54.36293,22.84085 7.8035,5.71876 3.53776,14.49795 -0.26305,21.84792 -1.72598,3.33764 -21.8035,25.03628 -44.61674,48.21918 -22.81323,23.18289 -54.31503,55.36998 -70.00399,71.52686 -15.68896,16.15687 -29.04047,29.3597 -29.67,29.33959 -0.62952,-0.0201 -31.7797,-30.49595 -69.22263,-67.72418 z"
       id="path9111"
       sodipodi:nodetypes="ssssssssssssscsssssssssssssscsssssssscsssssscssssssssssssssssss"
       clip-path="url(#clipPath9171)"
       transform="translate(3.3e-5,2.3e-5)" />
    <path
       style="opacity:1;fill:#f40500;fill-opacity:1;stroke-width:13.1119"
       d="M 473.49988,877.79128 C 377.62656,782.46775 369.32718,775.87873 345.0863,775.84142 c -27.1959,-0.0417 -29.64589,17.4537 -38.05479,61.51278 -1.95785,10.25834 -4.8782,24.45249 -6.48967,32.65916 -1.61147,8.20667 -8.32293,24.50237 -11.56455,30.62973 -6.97404,13.18233 -31.63006,26.04554 -42.09796,31.36355 -33.65177,17.09607 -83.15296,1.96727 -126.35626,-38.61763 -21.034504,-19.7597 -33.023622,-35.46575 -43.471173,-56.94838 -20.210685,-41.55795 -17.276896,-74.90041 8.789509,-99.89264 15.870654,-15.21663 28.025644,-30.39656 65.169394,-36.69135 36.96072,-6.26379 53.83808,-2.49358 64.8467,-14.43654 9.09705,-9.86914 12.21457,-19.0806 10.86922,-32.11579 -2.30104,-22.29494 -9.93208,-31.60199 -101.84304,-124.21096 L 56.792919,460.48549 104.27707,412.81915 c 26.11628,-26.21648 59.46176,-58.9213 74.10106,-72.67738 24.75099,-23.2577 27.12559,-25.01105 33.87321,-25.01105 5.83524,0 14.15373,-4.34154 18.09228,0.33918 9.44918,11.2297 18.01041,22.42884 19.62209,61.68655 1.69496,41.28643 -0.55232,45.61753 10.19313,63.72989 16.81687,28.34626 42.17601,41.39462 75.52703,35.83746 58.97568,-9.82691 99.16216,-14.27423 121.65127,-44.20967 40.83576,-54.35682 45.12053,-117.29084 19.9382,-155.30922 -10.42493,-15.73876 -26.76404,-23.83766 -44.19155,-29.84192 -4.14546,-1.42823 -21.38621,-4.4007 -43.74711,-5.20343 -40.16389,-1.44184 -44.67214,-2.71181 -48.26257,-3.93873 -10.1758,-3.47727 -18.65151,-27.09649 -18.65151,-34.42689 0,-7.63024 4.96192,-13.08671 86.5098,-95.13239 l 59.69041,-60.054776 68.18721,67.530446 c 97.56371,96.62402 104.41375,102.00562 129.83901,102.00562 11.35133,0 14.44927,-0.73774 20.5863,-4.90244 16.18312,-10.98216 10.13141,-28.74564 16.97305,-71.21412 2.03432,-12.62787 11.67439,-31.11111 13.60623,-36.60753 8.46869,-24.094958 39.13724,-43.304009 60.57745,-48.482184 21.15411,-5.109069 52.01448,2.173578 79.71239,18.811087 17.5422,10.537197 48.50603,39.109847 60.15629,55.510717 19.17175,26.98939 28.05063,50.95892 28.05325,75.73277 0.002,16.29443 -0.50149,18.78062 -6.10485,30.16267 -7.39704,15.02551 -12.54946,34.25013 -29.1035,42.26213 -8.78613,4.25239 -19.6741,14.29887 -44.78147,18.56925 -37.36878,6.35586 -58.73219,-1.83407 -71.08007,10.5138 -13.43363,13.43363 -15.36727,32.12258 -5.36565,51.85982 6.65213,13.12734 23.91908,31.95482 97.57427,106.39275 l 66.10206,66.80449 -67.96721,68.02076 c -37.38195,37.41142 -71.15177,70.23913 -75.04404,72.95049 -13.38786,9.32597 -32.54286,12.43603 -40.38122,-5.78471 -3.57582,-8.3122 -12.52732,-19.97507 -13.75717,-52.39302 -1.55747,-41.05299 -0.91279,-43.28603 -12.25734,-60.96496 -8.04951,-12.54408 -17.47338,-20.99007 -30.53929,-27.17451 -30.0612,-14.22875 -63.05738,-26.427 -104.72328,-6.26764 -39.76603,19.24014 -56.64948,35.71773 -75.71373,73.8936 -12.8076,25.64704 -18.41076,45.05778 -19.92077,69.01061 -1.30274,20.66478 13.14876,33.9858 21.78195,51.24253 11.43724,22.86171 30.52073,27.95036 54.95355,31.87134 6.66276,1.06924 24.97503,2.77046 42.92713,3.78052 33.31617,1.87449 45.51762,16.35863 54.36293,22.84085 7.8035,5.71876 3.53776,14.49795 -0.26305,21.84792 -1.72598,3.33764 -21.8035,25.03628 -44.61674,48.21918 -22.81323,23.18289 -54.31503,55.36998 -70.00399,71.52686 -15.68896,16.15687 -29.04047,29.3597 -29.67,29.33959 -0.62952,-0.0201 -31.7797,-30.49595 -69.22263,-67.72418 z"
       id="path11684"
       sodipodi:nodetypes="ssssssssssssscsssssssssssssscsssssssscsssssscssssssssssssssssss"
       clip-path="url(#clipPath12205)"
       transform="translate(3.3e-5,2.3e-5)" />
    <path
       style="opacity:1;fill:#f7b203;fill-opacity:1;stroke-width:13.1119"
       d="M 473.49986,877.7913 C 377.62654,782.46777 369.32716,775.87875 345.08628,775.84144 c -27.1959,-0.0417 -29.64589,17.4537 -38.05479,61.51278 -1.95785,10.25834 -4.8782,24.45249 -6.48967,32.65916 -1.61147,8.20667 -8.32293,24.50237 -11.56455,30.62973 -6.97404,13.18233 -31.63006,26.04554 -42.09796,31.36355 -33.65177,17.09607 -83.15296,1.96727 -126.35626,-38.61763 -21.034497,-19.7597 -33.023617,-35.46575 -43.471167,-56.94838 -20.21069,-41.55795 -17.2769,-74.90041 8.78951,-99.89264 15.870647,-15.21663 28.025637,-30.39656 65.169387,-36.69135 36.96072,-6.26379 53.83808,-2.49358 64.8467,-14.43654 9.09705,-9.86914 12.21457,-19.0806 10.86922,-32.11579 -2.30104,-22.29494 -9.93208,-31.60199 -101.84304,-124.21096 L 56.792903,460.48551 104.27705,412.81917 c 26.11628,-26.21648 59.46176,-58.9213 74.10106,-72.67738 24.75099,-23.2577 27.12559,-25.01105 33.87321,-25.01105 5.83524,0 14.15373,-4.34154 18.09228,0.33918 9.44918,11.2297 18.01041,22.42883 19.62209,61.68655 1.69496,41.28643 -0.55232,45.61753 10.19313,63.72989 16.81687,28.34626 42.17601,41.39462 75.52703,35.83746 58.97568,-9.82691 99.16216,-14.27423 121.65127,-44.20967 40.83576,-54.35682 45.12053,-117.29084 19.9382,-155.30922 -10.42493,-15.73876 -26.76404,-23.83766 -44.19155,-29.84192 -4.14546,-1.42823 -21.38621,-4.4007 -43.74711,-5.20343 -40.16389,-1.44184 -44.67214,-2.71181 -48.26257,-3.93873 -10.1758,-3.47727 -18.65151,-27.09649 -18.65151,-34.42689 0,-7.63024 4.96192,-13.08671 86.5098,-95.13239 L 468.62279,48.606793 536.81,116.13724 c 97.56371,96.62402 104.41375,102.00562 129.83901,102.00562 11.35133,0 14.44927,-0.73774 20.5863,-4.90244 16.18312,-10.98216 10.13141,-28.74564 16.97305,-71.21412 2.03432,-12.62787 11.67439,-31.11111 13.60623,-36.60753 8.46869,-24.094957 39.13724,-43.304007 60.57745,-48.482187 21.15411,-5.10907 52.01448,2.17358 79.71239,18.81109 17.5422,10.5372 48.50603,39.109847 60.1563,55.510717 19.17175,26.98939 28.05063,50.95892 28.05325,75.73277 0.002,16.29443 -0.50149,18.78062 -6.10485,30.16267 -7.39704,15.02551 -12.54946,34.25013 -29.1035,42.26213 -8.78614,4.25239 -19.67411,14.29887 -44.78148,18.56925 -37.36878,6.35586 -58.73219,-1.83407 -71.08007,10.5138 -13.43363,13.43363 -15.36727,32.12258 -5.36565,51.85982 6.65213,13.12734 23.91908,31.95482 97.57427,106.39275 l 66.10207,66.80449 -67.96722,68.02076 c -37.38195,37.41142 -71.15177,70.23913 -75.04404,72.95049 -13.38786,9.32597 -32.54286,12.43603 -40.38122,-5.78471 -3.57582,-8.3122 -12.52732,-19.97507 -13.75717,-52.39302 -1.55747,-41.05299 -0.91279,-43.28603 -12.25734,-60.96496 -8.04951,-12.54408 -17.47338,-20.99007 -30.53929,-27.17451 -30.0612,-14.22875 -63.05738,-26.427 -104.72328,-6.26764 -39.76603,19.24013 -56.64948,35.71772 -75.71373,73.89359 -12.8076,25.64704 -18.41076,45.05778 -19.92077,69.01062 -1.30274,20.66477 13.14876,33.9858 21.78195,51.24253 11.43724,22.86171 30.52073,27.95036 54.95355,31.87134 6.66276,1.06924 24.97503,2.77046 42.92713,3.78052 33.31617,1.87449 45.51762,16.35863 54.36293,22.84085 7.8035,5.71876 3.53776,14.49795 -0.26305,21.84792 -1.72598,3.33764 -21.8035,25.03628 -44.61674,48.21918 -22.81323,23.18289 -54.31503,55.36998 -70.00399,71.52686 -15.68896,16.15687 -29.04047,29.3597 -29.67,29.33959 -0.62952,-0.0201 -31.7797,-30.49595 -69.22263,-67.72418 z"
       id="path12278"
       sodipodi:nodetypes="ssssssssssssscsssssssssssssscsssssssscsssssscssssssssssssssssss"
       clip-path="url(#clipPath12336)" />
    <g
       id="g9040"
       transform="translate(27.407233,-36.542977)">
      <path
         style="fill:#000000;stroke-width:12.8447"
         d="m 249.40588,974.62499 c -12.68268,-1.62633 -35.88318,-6.80989 -39.86573,-8.90699 -1.65755,-0.87283 0.62255,-3.57909 7.3086,-8.67459 29.02536,-22.12047 55.33602,-55.60002 64.21174,-81.70759 3.05947,-8.99928 4.27961,-32.14013 1.69086,-32.06848 -0.75369,0.0208 -4.50352,4.95217 -8.33295,10.95851 -3.82941,6.00631 -13.5983,17.93074 -21.70861,26.49874 -26.48696,27.98164 -57.75641,46.53589 -94.66138,56.16889 -19.10303,4.98633 -23.66846,5.48582 -50.2466,5.49742 -24.789292,0.011 -32.554998,-0.71473 -51.073257,-4.7716 -23.364834,-5.11865 -46.644679,-11.74673 -49.0870914,-13.97574 -0.8218567,-0.75004 6.1669894,-5.12826 15.5307694,-9.72935 44.464793,-21.84874 74.017453,-66.89906 82.662489,-126.01138 1.58437,-10.83344 2.88066,-26.09454 2.88066,-33.91354 0,-12.04723 -4.09205,-47.02727 -8.4179,-71.95867 l -1.180682,-6.80467 11.651102,1.03787 c 15.08073,1.34342 36.43479,-3.10445 45.68692,-9.51617 9.13968,-6.33382 13.27435,-16.9981 12.22342,-31.52712 -0.42978,-5.94154 -2.19404,-12.95874 -3.92059,-15.59378 -6.70348,-10.23083 -30.4802,-4.48346 -55.46364,13.40678 -5.60743,4.0154 -10.845492,6.89889 -11.640133,6.40777 -2.156557,-1.33281 -6.580948,-22.60017 -10.060345,-48.3585 -2.250043,-16.6573 -2.824023,-30.01056 -2.120542,-49.33303 2.245108,-61.66618 17.78048,-111.51726 49.05886,-157.42379 15.43507,-22.65365 55.38673,-62.96608 69.09725,-69.72122 27.77918,-13.68668 52.88775,0.8533 63.37605,36.70005 2.28293,7.80253 3.15737,18.85167 3.43155,43.35944 0.32488,29.04188 0.84167,34.11798 4.41845,43.39861 7.66206,19.88076 25.08476,36.83822 43.04073,41.89139 9.30097,2.61748 33.86868,2.51806 45.43868,-0.18389 23.50735,-5.48967 56.90262,-22.44516 76.46262,-38.82171 24.38007,-20.41215 48.27783,-65.77435 52.68603,-100.00741 3.55366,-27.59705 -3.83935,-48.86952 -22.3348,-64.26545 -17.26974,-14.37564 -25.83472,-16.63077 -65.43484,-17.22874 -42.82759,-0.64672 -55.06699,-3.8623 -71.64729,-18.82349 -9.20288,-8.30421 -12.40158,-15.59238 -12.40158,-28.25681 0,-19.38505 2.28284,-22.19076 88.5591,-108.84284 l 78.84756,-79.191025 83.38703,83.219975 c 45.86288,45.77099 86.51256,85.18625 90.33264,87.58948 3.82009,2.40322 9.97859,5.36509 13.68555,6.58193 14.70932,4.82844 24.80938,-8.49951 29.9571,-39.53111 7.0663,-42.59712 8.68153,-50.06324 12.71358,-58.766 16.91478,-36.508798 47.65028,-59.295573 83.39486,-61.827509 67.48948,-4.780556 155.78518,67.542709 175.21711,143.520849 4.26471,16.67485 4.59069,41.08312 0.74582,55.84457 -3.9675,15.23232 -10.69299,25.81938 -25.89028,40.75568 -16.65226,16.36627 -35.94988,26.63501 -55.67646,29.62684 -53.5081,8.11525 -63.22607,10.8139 -71.05635,19.7321 -6.68605,7.61498 -6.74262,11.18579 -0.38084,24.0348 4.0822,8.2449 20.70371,25.87503 88.61675,93.99428 45.97564,46.11522 83.59208,84.39878 83.59208,85.07457 0,3.15023 -157.03419,157.40572 -164.71304,161.79846 -27.26675,15.59817 -54.95482,0.97498 -65.42534,-34.55375 -1.18463,-4.01973 -2.8331,-23.75294 -3.66328,-43.85158 -1.68973,-40.9086 -2.93733,-46.21318 -14.57353,-61.96454 -22.91578,-31.01995 -62.74898,-34.91459 -113.10853,-11.05906 -31.00853,14.68889 -48.91176,29.83952 -66.12614,55.95935 -33.26427,50.47277 -38.07421,101.81154 -12.09342,129.07931 16.16866,16.9696 32.69934,22.26645 69.63264,22.31213 27.92335,0.0345 45.61725,2.84741 59.16483,9.40569 27.00777,13.07424 34.76773,36.88581 19.9851,61.3247 -7.62588,12.60726 -43.0742,47.37469 -64.45983,63.22171 -32.7763,24.28765 -80.99349,43.65933 -123.38851,49.5724 -20.73436,2.89196 -53.84425,3.65929 -70.67165,1.63786 l -9.51806,-1.14338 11.34521,-9.0062 c 12.91325,-10.25095 16.28176,-14.0158 21.74602,-24.30468 10.38089,-19.54661 -0.37503,-47.21223 -22.67582,-58.32519 -23.9132,-11.91644 -34.03163,-1.94761 -34.23771,33.73157 -0.13265,22.97034 -8.17079,45.60233 -22.27253,62.71018 -12.42747,15.07667 -38.69712,28.41974 -65.51021,33.27438 -14.98949,2.71392 -57.72626,3.06048 -76.74027,0.62229 z m 79.17913,-24.30721 c 26.06938,-5.87603 46.02615,-19.7739 55.05861,-38.34272 4.94572,-10.16734 8.18656,-28.36703 8.24371,-46.29454 0.0413,-12.93169 5.23988,-28.80494 12.10656,-36.96553 10.33326,-12.28038 34.75779,-14.46865 54.37366,-4.87149 11.86029,5.80269 26.4014,20.73964 33.24906,34.15415 7.03047,13.77265 8.20916,33.2494 2.85923,47.24593 -2.08974,5.46722 -3.5502,10.18974 -3.24547,10.49447 1.31304,1.31305 32.77445,-3.63962 48.74204,-7.67297 30.91897,-7.81002 57.03052,-19.251 81.25835,-35.60399 24.26106,-16.37542 60.01398,-51.37387 66.97824,-65.56481 3.81059,-7.76478 3.83293,-8.19639 0.72302,-13.97115 -6.87955,-12.77453 -33.10042,-20.55276 -61.30623,-18.18602 -7.53699,0.63244 -20.68209,0.26684 -29.21133,-0.81244 -41.21876,-5.21576 -74.99158,-37.20825 -80.36185,-76.12551 -7.21143,-52.25996 29.69171,-125.70306 79.48383,-158.18537 50.23937,-32.77411 100.76463,-41.86842 136.95808,-24.65181 21.24765,10.10715 39.37975,31.05127 46.91692,54.19303 3.27818,10.06516 3.93735,17.03175 4.32202,45.67873 0.39519,29.43075 0.96024,35.13661 4.3692,44.12003 7.65326,20.16804 19.66194,25.28274 34.12432,14.53408 3.91927,-2.91286 37.11448,-35.37226 73.76713,-72.132 l 66.6412,-66.8359 -74.10004,-74.49671 c -82.74847,-83.19146 -89.00234,-90.69107 -92.86408,-111.36192 -4.42883,-23.7063 11.97463,-43.20044 43.49255,-51.68733 4.18989,-1.12821 18.50619,-3.62717 31.81403,-5.5532 28.08582,-4.06486 36.15075,-6.58812 49.60847,-15.52083 37.10208,-24.62696 45.0618,-62.37534 22.89694,-108.58693 -9.77267,-20.37508 -20.62855,-35.27796 -38.83936,-53.31849 -38.67644,-38.31477 -85.5124,-56.48111 -119.55433,-46.371742 -13.43832,3.990754 -25.58959,13.1402 -36.56221,27.529957 -11.58661,15.194985 -15.74154,27.072965 -19.66942,56.230335 -6.84476,50.81007 -22.1321,74.28988 -48.34796,74.25765 -24.43977,-0.03 -32.17455,-6.05789 -119.79833,-93.36116 L 487.74802,57.592241 418.10458,127.46218 c -38.30388,38.42847 -70.96434,72.50132 -72.57875,75.71744 -4.32715,8.62015 -3.64398,14.17497 2.49877,20.31774 9.58303,9.58301 18.99786,11.66927 59.42969,13.16914 41.11207,1.52511 48.94486,3.21798 65.91272,14.24544 21.36498,13.88521 33.45941,29.58395 39.45814,51.21728 9.0661,32.69516 -2.1162,80.06262 -28.54602,120.91894 -17.21765,26.61577 -40.31342,46.34348 -73.82456,63.05872 -42.2595,21.07887 -82.72434,24.50472 -113.11458,9.57651 -14.52754,-7.13617 -32.58602,-25.88373 -40.37092,-41.91137 -7.22794,-14.881 -9.35944,-28.97928 -9.37654,-62.01924 -0.0165,-30.67526 -3.22997,-43.85243 -13.20695,-54.14605 -11.06914,-11.42045 -20.77025,-6.68282 -51.75717,25.27623 -41.32798,42.62449 -57.89466,74.74994 -71.30457,138.27104 -2.92025,13.83287 -4.15517,51.25247 -2.45165,74.2882 1.03595,14.00865 2.24604,26.05679 2.68909,26.77368 0.44305,0.71686 6.76727,-1.25876 14.05381,-4.39028 10.85639,-4.66571 15.74506,-5.70591 27.07771,-5.76146 17.97172,-0.0881 26.3488,4.89017 33.77683,20.0725 4.24054,8.66734 5.05585,12.76065 5.20464,26.13006 0.15421,13.85767 -0.46518,17.15924 -4.9215,26.23388 -8.52097,17.35173 -25.1727,28.59575 -48.87699,33.00402 l -11.20651,2.08408 1.01105,6.49978 c 2.51897,16.19387 3.35263,64.17553 1.40232,80.71119 -5.29823,44.92094 -24.68854,87.19365 -53.366888,116.34481 -6.220033,6.3226 -10.882038,11.92274 -10.36001,12.44475 1.976181,1.97619 24.882848,4.3084 42.663518,4.34372 43.97964,0.0873 81.14653,-13.24873 114.38283,-41.04258 17.23943,-14.41646 32.06417,-33.81289 55.3246,-72.38577 l 20.09865,-33.32965 2.91784,20.86683 c 1.60483,11.47676 3.96894,28.25509 5.25357,37.28517 1.28463,9.03009 1.8826,21.77445 1.32881,28.32082 -2.00469,23.69829 -15.28578,51.36338 -37.1081,77.29782 -6.42172,7.63179 -11.67583,14.27965 -11.67583,14.77302 0,3.67114 52.1703,2.62778 70.04338,-1.40081 z"
         id="path9028"
         clip-path="url(#clipPath9032)"
         transform="translate(-45.678733,34.715837)" />
      <path
         style="opacity:1;fill:#000000;stroke-width:12.8447"
         d="m 249.40588,974.62499 c -12.68268,-1.62633 -35.88318,-6.80989 -39.86573,-8.90699 -1.65755,-0.87283 0.62255,-3.57909 7.3086,-8.67459 29.02536,-22.12047 55.33602,-55.60002 64.21174,-81.70759 3.05947,-8.99928 4.27961,-32.14013 1.69086,-32.06848 -0.75369,0.0208 -4.50352,4.95217 -8.33295,10.95851 -3.82941,6.00631 -13.5983,17.93074 -21.70861,26.49874 -26.48696,27.98164 -57.75641,46.53589 -94.66138,56.16889 -19.10303,4.98633 -23.66846,5.48582 -50.2466,5.49742 -24.789292,0.011 -32.554998,-0.71473 -51.073257,-4.7716 -23.364834,-5.11865 -46.644679,-11.74673 -49.0870914,-13.97574 -0.8218567,-0.75004 6.1669894,-5.12826 15.5307694,-9.72935 44.464793,-21.84874 74.017453,-66.89906 82.662489,-126.01138 1.58437,-10.83344 2.88066,-26.09454 2.88066,-33.91354 0,-12.04723 -4.09205,-47.02727 -8.4179,-71.95867 l -1.180682,-6.80467 11.651102,1.03787 c 15.08073,1.34342 36.43479,-3.10445 45.68692,-9.51617 9.13968,-6.33382 13.27435,-16.9981 12.22342,-31.52712 -0.42978,-5.94154 -2.19404,-12.95874 -3.92059,-15.59378 -6.70348,-10.23083 -30.4802,-4.48346 -55.46364,13.40678 -5.60743,4.0154 -10.845492,6.89889 -11.640133,6.40777 -2.156557,-1.33281 -6.580948,-22.60017 -10.060345,-48.3585 -2.250043,-16.6573 -2.824023,-30.01056 -2.120542,-49.33303 2.245108,-61.66618 17.78048,-111.51726 49.05886,-157.42379 15.43507,-22.65365 55.38673,-62.96608 69.09725,-69.72122 27.77918,-13.68668 52.88775,0.8533 63.37605,36.70005 2.28293,7.80253 3.15737,18.85167 3.43155,43.35944 0.32488,29.04188 0.84167,34.11798 4.41845,43.39861 7.66206,19.88076 25.08476,36.83822 43.04073,41.89139 9.30097,2.61748 33.86868,2.51806 45.43868,-0.18389 23.50735,-5.48967 56.90262,-22.44516 76.46262,-38.82171 24.38007,-20.41215 48.27783,-65.77435 52.68603,-100.00741 3.55366,-27.59705 -3.83935,-48.86952 -22.3348,-64.26545 -17.26974,-14.37564 -25.83472,-16.63077 -65.43484,-17.22874 -42.82759,-0.64672 -55.06699,-3.8623 -71.64729,-18.82349 -9.20288,-8.30421 -12.40158,-15.59238 -12.40158,-28.25681 0,-19.38505 2.28284,-22.19076 88.5591,-108.84284 l 78.84756,-79.191025 83.38703,83.219975 c 45.86288,45.77099 86.51256,85.18625 90.33264,87.58948 3.82009,2.40322 9.97859,5.36509 13.68555,6.58193 14.70932,4.82844 24.80938,-8.49951 29.9571,-39.53111 7.0663,-42.59712 8.68153,-50.06324 12.71358,-58.766 16.91478,-36.508798 47.65028,-59.295573 83.39486,-61.827509 67.48948,-4.780556 155.78518,67.542709 175.21711,143.520849 4.26471,16.67485 4.59069,41.08312 0.74582,55.84457 -3.9675,15.23232 -10.69299,25.81938 -25.89028,40.75568 -16.65226,16.36627 -35.94988,26.63501 -55.67646,29.62684 -53.5081,8.11525 -63.22607,10.8139 -71.05635,19.7321 -6.68605,7.61498 -6.74262,11.18579 -0.38084,24.0348 4.0822,8.2449 20.70371,25.87503 88.61675,93.99428 45.97564,46.11522 83.59208,84.39878 83.59208,85.07457 0,3.15023 -157.03419,157.40572 -164.71304,161.79846 -27.26675,15.59817 -54.95482,0.97498 -65.42534,-34.55375 -1.18463,-4.01973 -2.8331,-23.75294 -3.66328,-43.85158 -1.68973,-40.9086 -2.93733,-46.21318 -14.57353,-61.96454 -22.91578,-31.01995 -62.74898,-34.91459 -113.10853,-11.05906 -31.00853,14.68889 -48.91176,29.83952 -66.12614,55.95935 -33.26427,50.47277 -38.07421,101.81154 -12.09342,129.07931 16.16866,16.9696 32.69934,22.26645 69.63264,22.31213 27.92335,0.0345 45.61725,2.84741 59.16483,9.40569 27.00777,13.07424 34.76773,36.88581 19.9851,61.3247 -7.62588,12.60726 -43.0742,47.37469 -64.45983,63.22171 -32.7763,24.28765 -80.99349,43.65933 -123.38851,49.5724 -20.73436,2.89196 -53.84425,3.65929 -70.67165,1.63786 l -9.51806,-1.14338 11.34521,-9.0062 c 12.91325,-10.25095 16.28176,-14.0158 21.74602,-24.30468 10.38089,-19.54661 -0.37503,-47.21223 -22.67582,-58.32519 -23.9132,-11.91644 -34.03163,-1.94761 -34.23771,33.73157 -0.13265,22.97034 -8.17079,45.60233 -22.27253,62.71018 -12.42747,15.07667 -38.69712,28.41974 -65.51021,33.27438 -14.98949,2.71392 -57.72626,3.06048 -76.74027,0.62229 z m 79.17913,-24.30721 c 26.06938,-5.87603 46.02615,-19.7739 55.05861,-38.34272 4.94572,-10.16734 8.18656,-28.36703 8.24371,-46.29454 0.0413,-12.93169 5.23988,-28.80494 12.10656,-36.96553 10.33326,-12.28038 34.75779,-14.46865 54.37366,-4.87149 11.86029,5.80269 26.4014,20.73964 33.24906,34.15415 7.03047,13.77265 8.20916,33.2494 2.85923,47.24593 -2.08974,5.46722 -3.5502,10.18974 -3.24547,10.49447 1.31304,1.31305 32.77445,-3.63962 48.74204,-7.67297 30.91897,-7.81002 57.03052,-19.251 81.25835,-35.60399 24.26106,-16.37542 60.01398,-51.37387 66.97824,-65.56481 3.81059,-7.76478 3.83293,-8.19639 0.72302,-13.97115 -6.87955,-12.77453 -33.10042,-20.55276 -61.30623,-18.18602 -7.53699,0.63244 -20.68209,0.26684 -29.21133,-0.81244 -41.21876,-5.21576 -74.99158,-37.20825 -80.36185,-76.12551 -7.21143,-52.25996 29.69171,-125.70306 79.48383,-158.18537 50.23937,-32.77411 100.76463,-41.86842 136.95808,-24.65181 21.24765,10.10715 39.37975,31.05127 46.91692,54.19303 3.27818,10.06516 3.93735,17.03175 4.32202,45.67873 0.39519,29.43075 0.96024,35.13661 4.3692,44.12003 7.65326,20.16804 19.66194,25.28274 34.12432,14.53408 3.91927,-2.91286 37.11448,-35.37226 73.76713,-72.132 l 66.6412,-66.8359 -74.10004,-74.49671 c -82.74847,-83.19146 -89.00234,-90.69107 -92.86408,-111.36192 -4.42883,-23.7063 11.97463,-43.20044 43.49255,-51.68733 4.18989,-1.12821 18.50619,-3.62717 31.81403,-5.5532 28.08582,-4.06486 36.15075,-6.58812 49.60847,-15.52083 37.10208,-24.62696 45.0618,-62.37534 22.89694,-108.58693 -9.77267,-20.37508 -20.62855,-35.27796 -38.83936,-53.31849 -38.67644,-38.31477 -85.5124,-56.48111 -119.55433,-46.371742 -13.43832,3.990754 -25.58959,13.1402 -36.56221,27.529957 -11.58661,15.194985 -15.74154,27.072965 -19.66942,56.230335 -6.84476,50.81007 -22.1321,74.28988 -48.34796,74.25765 -24.43977,-0.03 -32.17455,-6.05789 -119.79833,-93.36116 L 487.74802,57.592241 418.10458,127.46218 c -38.30388,38.42847 -70.96434,72.50132 -72.57875,75.71744 -4.32715,8.62015 -3.64398,14.17497 2.49877,20.31774 9.58303,9.58301 18.99786,11.66927 59.42969,13.16914 41.11207,1.52511 48.94486,3.21798 65.91272,14.24544 21.36498,13.88521 33.45941,29.58395 39.45814,51.21728 9.0661,32.69516 -2.1162,80.06262 -28.54602,120.91894 -17.21765,26.61577 -40.31342,46.34348 -73.82456,63.05872 -42.2595,21.07887 -82.72434,24.50472 -113.11458,9.57651 -14.52754,-7.13617 -32.58602,-25.88373 -40.37092,-41.91137 -7.22794,-14.881 -9.35944,-28.97928 -9.37654,-62.01924 -0.0165,-30.67526 -3.22997,-43.85243 -13.20695,-54.14605 -11.06914,-11.42045 -20.77025,-6.68282 -51.75717,25.27623 -41.32798,42.62449 -57.89466,74.74994 -71.30457,138.27104 -2.92025,13.83287 -4.15517,51.25247 -2.45165,74.2882 1.03595,14.00865 2.24604,26.05679 2.68909,26.77368 0.44305,0.71686 6.76727,-1.25876 14.05381,-4.39028 10.85639,-4.66571 15.74506,-5.70591 27.07771,-5.76146 17.97172,-0.0881 26.3488,4.89017 33.77683,20.0725 4.24054,8.66734 5.05585,12.76065 5.20464,26.13006 0.15421,13.85767 -0.46518,17.15924 -4.9215,26.23388 -8.52097,17.35173 -25.1727,28.59575 -48.87699,33.00402 l -11.20651,2.08408 1.01105,6.49978 c 2.51897,16.19387 3.35263,64.17553 1.40232,80.71119 -5.29823,44.92094 -24.68854,87.19365 -53.366888,116.34481 -6.220033,6.3226 -10.882038,11.92274 -10.36001,12.44475 1.976181,1.97619 24.882848,4.3084 42.663518,4.34372 43.97964,0.0873 81.14653,-13.24873 114.38283,-41.04258 17.23943,-14.41646 32.06417,-33.81289 55.3246,-72.38577 l 20.09865,-33.32965 2.91784,20.86683 c 1.60483,11.47676 3.96894,28.25509 5.25357,37.28517 1.28463,9.03009 1.8826,21.77445 1.32881,28.32082 -2.00469,23.69829 -15.28578,51.36338 -37.1081,77.29782 -6.42172,7.63179 -11.67583,14.27965 -11.67583,14.77302 0,3.67114 52.1703,2.62778 70.04338,-1.40081 z"
         id="path9036"
         clip-path="url(#clipPath9032)"
         transform="rotate(180,500.89795,516.31169)" />
    </g>
  </g>
</svg>
