<?xml version="1.0" encoding="UTF-8" standalone="no"?>
<svg
   height="24"
   viewBox="0 -960 960 960"
   width="24"
   version="1.1"
   id="svg5995"
   sodipodi:docname="skull.svg"
   inkscape:version="1.2.2 (732a01da63, 2022-12-09)"
   xmlns:inkscape="http://www.inkscape.org/namespaces/inkscape"
   xmlns:sodipodi="http://sodipodi.sourceforge.net/DTD/sodipodi-0.dtd"
   xmlns="http://www.w3.org/2000/svg"
   xmlns:svg="http://www.w3.org/2000/svg">
  <defs
     id="defs5999" />
  <sodipodi:namedview
     id="namedview5997"
     pagecolor="#ffffff"
     bordercolor="#000000"
     borderopacity="0.25"
     inkscape:showpageshadow="2"
     inkscape:pageopacity="0.0"
     inkscape:pagecheckerboard="0"
     inkscape:deskcolor="#d1d1d1"
     showgrid="false"
     inkscape:zoom="33.5"
     inkscape:cx="12.014925"
     inkscape:cy="12.014925"
     inkscape:window-width="1920"
     inkscape:window-height="991"
     inkscape:window-x="-9"
     inkscape:window-y="-9"
     inkscape:window-maximized="1"
     inkscape:current-layer="svg5995" />
  <path
     d="M240-80v-170q-39-17-68.5-45.5t-50-64.5q-20.5-36-31-77T80-520q0-158 112-259t288-101q176 0 288 101t112 259q0 42-10.5 83t-31 77q-20.5 36-50 64.5T720-250v170H240Zm80-80h40v-80h80v80h80v-80h80v80h40v-142q38-9 67.5-30t50-50q20.5-29 31.5-64t11-74q0-125-88.5-202.5T480-800q-143 0-231.5 77.5T160-520q0 39 11 74t31.5 64q20.5 29 50.5 50t67 30v142Zm100-200h120l-60-120-60 120Zm-80-80q33 0 56.5-23.5T420-520q0-33-23.5-56.5T340-600q-33 0-56.5 23.5T260-520q0 33 23.5 56.5T340-440Zm280 0q33 0 56.5-23.5T700-520q0-33-23.5-56.5T620-600q-33 0-56.5 23.5T540-520q0 33 23.5 56.5T620-440ZM480-160Z"
     id="path5993"
     style="fill:#ff0000;fill-opacity:1" />
</svg>
